<svg width="20" height="20" viewBox="0 0 20 20" fill="none" xmlns="http://www.w3.org/2000/svg">
<g clip-path="url(#clip0_87_1904)">
<path d="M18.3337 11.6666C18.3337 13.4347 17.6313 15.1304 16.381 16.3807C15.1308 17.6309 13.4351 18.3333 11.667 18.3333" stroke="black" stroke-width="2" stroke-linecap="round" stroke-linejoin="round"/>
<path d="M15.0003 9.16663V8.33329C15.0003 7.89127 14.8247 7.46734 14.5122 7.15478C14.1996 6.84222 13.7757 6.66663 13.3337 6.66663C12.8916 6.66663 12.4677 6.84222 12.1551 7.15478C11.8426 7.46734 11.667 7.89127 11.667 8.33329" stroke="black" stroke-width="2" stroke-linecap="round" stroke-linejoin="round"/>
<path d="M11.6663 8.33337V7.50004C11.6663 7.05801 11.4907 6.63409 11.1782 6.32153C10.8656 6.00897 10.4417 5.83337 9.99967 5.83337C9.55765 5.83337 9.13372 6.00897 8.82116 6.32153C8.5086 6.63409 8.33301 7.05801 8.33301 7.50004V8.33337" stroke="black" stroke-width="2" stroke-linecap="round" stroke-linejoin="round"/>
<path d="M8.33333 7.91663V3.33329C8.33333 2.89127 8.15774 2.46734 7.84518 2.15478C7.53262 1.84222 7.10869 1.66663 6.66667 1.66663C6.22464 1.66663 5.80072 1.84222 5.48816 2.15478C5.17559 2.46734 5 2.89127 5 3.33329V11.6666" stroke="black" stroke-width="2" stroke-linecap="round" stroke-linejoin="round"/>
<path d="M15.0004 9.16667C15.0004 8.72464 15.176 8.30072 15.4886 7.98816C15.8011 7.6756 16.2251 7.5 16.6671 7.5C17.1091 7.5 17.533 7.6756 17.8456 7.98816C18.1582 8.30072 18.3337 8.72464 18.3337 9.16667V11.6667C18.3337 13.4348 17.6314 15.1305 16.3811 16.3807C15.1309 17.631 13.4352 18.3333 11.6671 18.3333H10.0004C7.66708 18.3333 6.25041 17.6167 5.00875 16.3833L2.00874 13.3833C1.72202 13.0658 1.5684 12.6501 1.57968 12.2225C1.59096 11.7948 1.76628 11.3878 2.06935 11.0858C2.37241 10.7838 2.78 10.6099 3.20772 10.6002C3.63545 10.5904 4.05055 10.7455 4.36708 11.0333L5.83374 12.5" stroke="black" stroke-width="2" stroke-linecap="round" stroke-linejoin="round"/>
<path d="M2.75879 4.82764L16.5519 18.6207" stroke="black" stroke-width="2" stroke-linecap="round" stroke-linejoin="round"/>
</g>
<defs>
<clipPath id="clip0_87_1904">
<rect width="20" height="20" fill="white"/>
</clipPath>
</defs>
</svg>
